<?xml version="1.0" encoding="utf-8"?>
<!-- Generator: Adobe Illustrator 19.2.1, SVG Export Plug-In . SVG Version: 6.00 Build 0)  -->
<svg version="1.1" id="Layer_2" xmlns="http://www.w3.org/2000/svg" xmlns:xlink="http://www.w3.org/1999/xlink" x="0px" y="0px"
	 viewBox="0 0 549.5 113.1" style="enable-background:new 0 0 549.5 113.1;" xml:space="preserve">
<style type="text/css">
	.st0{fill:#FFFFFF;}
	.st1{fill:#B42025;}
</style>
<rect x="-1139" class="st0" width="549.5" height="113.1"/>
<g>
	<g>
		<g>
			<path class="st1" d="M-829.5,82.2l13-51.3h7.2c8.5,0,15,2.1,19.4,6.4s6.6,10.5,6.6,18.7c0,8.4-2.3,14.9-6.9,19.4
				c-4.6,4.5-11.2,6.8-19.8,6.8C-810,82.2-829.5,82.2-829.5,82.2z M-815.7,70.6h5.8c4.2,0,7.3-1.2,9.3-3.7s2.9-6,2.9-10.5
				s-0.9-7.9-2.7-10.3c-1.8-2.4-4.7-3.6-8.8-3.6h-6.5V70.6L-815.7,70.6z"/>
		</g>
		<g>
			<path class="st1" d="M-738,47.1c0,3.3-0.6,6.1-1.9,8.6c-1.2,2.5-3.2,4.5-5.7,6l10.5,20.5h-14.6l-8.4-17.7h-7.5v17.7h-13.1V30.9
				h20.3c4,0,7.3,0.5,9.9,1.4c2.6,0.9,4.7,2.1,6.3,3.6s2.7,3.2,3.3,5.2C-738.3,43.1-738,45.1-738,47.1z M-765.6,53.8h6.8
				c2.8,0,4.7-0.5,5.9-1.6c1.1-1.1,1.7-2.6,1.7-4.6c0-1.9-0.6-3.4-1.8-4.5s-3.3-1.6-6.2-1.6h-6.3v12.3
				C-765.5,53.8-765.6,53.8-765.6,53.8z"/>
			<path class="st1" d="M-729.8,30.9h13.8v51.3h-13.8V30.9z"/>
			<path class="st1" d="M-695,82.2l-17.3-51.3h14.8l10.4,35l10.4-35h14.5l-17.3,51.3H-695z"/>
			<path class="st1" d="M-658.6,30.9h36.7v11.4h-23.3v8.2h21.8v11.4h-21.8V71h24.8l-1.1,11.4h-37.1L-658.6,30.9L-658.6,30.9z"/>
		</g>
	</g>
	<g>
		<path d="M-832,82.2V54l-9.1,28.2h-10.1l-9.1-28.4v28.4H-873V30.9h16l11,34.3l11.1-34.3h16L-832,82.2z"/>
	</g>
	<g>
		<path d="M-1108.1,30.9h13.8v39.6h22.7l-1.2,11.7h-35.3V30.9z"/>
		<path d="M-1036.1,30.9l17.8,51.3h-14.3l-2.9-9.8h-17.3l-2.9,9.8h-13.9l17.9-51.3C-1051.7,30.9-1036.1,30.9-1036.1,30.9z
			 M-1049.4,61.4h10.6l-5.3-17.7L-1049.4,61.4z"/>
		<path d="M-1009,42.6h-14.8V30.9h43.4v11.7h-14.8v39.6h-13.8L-1009,42.6L-1009,42.6z"/>
		<path d="M-976.3,30.9h13.8v18.6h16.7V30.9h13.8v51.3h-13.8V61.9h-16.7v20.3h-13.8V30.9z"/>
		<path d="M-894.9,30.9l17.8,51.3h-14.3l-2.9-9.8h-17.3l-2.9,9.8h-13.9l17.8-51.3C-910.6,30.9-894.9,30.9-894.9,30.9z M-908.3,61.4
			h10.6l-5.2-17.7L-908.3,61.4z"/>
	</g>
</g>
<rect x="-569.5" width="549.5" height="113.1"/>
<g>
	<g>
		<g>
			<path class="st1" d="M-260,82.2l13-51.3h7.2c8.5,0,15,2.1,19.4,6.4s6.6,10.5,6.6,18.7c0,8.4-2.3,14.9-6.9,19.4
				s-11.2,6.8-19.8,6.8C-240.5,82.2-260,82.2-260,82.2z M-246.2,70.6h5.8c4.2,0,7.3-1.2,9.3-3.7s2.9-6,2.9-10.5s-0.9-7.9-2.7-10.3
				c-1.8-2.4-4.7-3.6-8.8-3.6h-6.5V70.6L-246.2,70.6z"/>
		</g>
		<g>
			<path class="st1" d="M-168.5,47.1c0,3.3-0.6,6.1-1.9,8.6c-1.2,2.5-3.2,4.5-5.7,6l10.5,20.5h-14.6l-8.4-17.7h-7.5v17.7h-13.1V30.9
				h20.3c4,0,7.3,0.5,9.9,1.4c2.6,0.9,4.7,2.1,6.3,3.6s2.7,3.2,3.3,5.2C-168.8,43.1-168.5,45.1-168.5,47.1z M-196.1,53.8h6.8
				c2.8,0,4.7-0.5,5.9-1.6c1.1-1.1,1.7-2.6,1.7-4.6c0-1.9-0.6-3.4-1.8-4.5s-3.3-1.6-6.2-1.6h-6.3L-196.1,53.8
				C-196,53.8-196.1,53.8-196.1,53.8z"/>
			<path class="st1" d="M-160.3,30.9h13.8v51.3h-13.8V30.9z"/>
			<path class="st1" d="M-125.5,82.2l-17.3-51.3h14.8l10.4,35l10.4-35h14.5L-110,82.2H-125.5z"/>
			<path class="st1" d="M-89.1,30.9h36.7v11.4h-23.3v8.2h21.8v11.4h-21.8V71h24.8L-52,82.4h-37.1V30.9z"/>
		</g>
	</g>
	<g>
		<path class="st0" d="M-262.5,82.2V54l-9.1,28.2h-10.1l-9.1-28.4v28.4h-12.7V30.9h16l11,34.3l11.1-34.3h16L-262.5,82.2z"/>
	</g>
	<g>
		<path class="st0" d="M-538.6,30.9h13.8v39.6h22.7l-1.2,11.7h-35.3V30.9z"/>
		<path class="st0" d="M-466.6,30.9l17.8,51.3h-14.3l-2.9-9.8h-17.3l-2.9,9.8h-13.9l17.9-51.3C-482.2,30.9-466.6,30.9-466.6,30.9z
			 M-479.9,61.4h10.6l-5.3-17.7L-479.9,61.4z"/>
		<path class="st0" d="M-439.5,42.6h-14.8V30.9h43.4v11.7h-14.8v39.6h-13.8L-439.5,42.6L-439.5,42.6z"/>
		<path class="st0" d="M-406.8,30.9h13.8v18.6h16.7V30.9h13.8v51.3h-13.8V61.9H-393v20.3h-13.8V30.9z"/>
		<path class="st0" d="M-325.4,30.9l17.8,51.3h-14.3l-2.9-9.8h-17.3l-2.9,9.8h-13.9l17.8-51.3C-341.1,30.9-325.4,30.9-325.4,30.9z
			 M-338.8,61.4h10.6l-5.2-17.7L-338.8,61.4z"/>
	</g>
</g>
<rect class="st1" width="549.5" height="113.1"/>
<g>
	<g>
		<g>
			<path class="st0" d="M309.5,82.2l13-51.3h7.2c8.5,0,15,2.1,19.4,6.4s6.6,10.5,6.6,18.7c0,8.4-2.3,14.9-6.9,19.4
				s-11.2,6.8-19.8,6.8C329,82.2,309.5,82.2,309.5,82.2z M323.3,70.6h5.8c4.2,0,7.3-1.2,9.3-3.7s2.9-6,2.9-10.5s-0.9-7.9-2.7-10.3
				c-1.8-2.4-4.7-3.6-8.8-3.6h-6.5L323.3,70.6L323.3,70.6z"/>
		</g>
		<g>
			<path class="st0" d="M401,47.1c0,3.3-0.6,6.1-1.9,8.6c-1.2,2.5-3.2,4.5-5.7,6l10.5,20.5h-14.6l-8.4-17.7h-7.5v17.7h-13.1V30.9
				h20.3c4,0,7.3,0.5,9.9,1.4c2.6,0.9,4.7,2.1,6.3,3.6c1.6,1.5,2.7,3.2,3.3,5.2C400.7,43.1,401,45.1,401,47.1z M373.4,53.8h6.8
				c2.8,0,4.7-0.5,5.9-1.6c1.1-1.1,1.7-2.6,1.7-4.6c0-1.9-0.6-3.4-1.8-4.5c-1.2-1.1-3.3-1.6-6.2-1.6h-6.3v12.3
				C373.5,53.8,373.4,53.8,373.4,53.8z"/>
			<path class="st0" d="M409.2,30.9H423v51.3h-13.8V30.9z"/>
			<path class="st0" d="M444,82.2l-17.3-51.3h14.8l10.4,35l10.4-35h14.5l-17.3,51.3H444z"/>
			<path class="st0" d="M480.4,30.9h36.7v11.4h-23.3v8.2h21.8v11.4h-21.8V71h24.8l-1.1,11.4h-37.1V30.9z"/>
		</g>
	</g>
	<g>
		<path d="M307,82.2V54l-9.1,28.2h-10.1l-9.1-28.4v28.4H266V30.9h16l11,34.3l11.1-34.3h16L307,82.2z"/>
	</g>
	<g>
		<path d="M30.9,30.9h13.8v39.6h22.7l-1.2,11.7H30.9V30.9z"/>
		<path d="M102.9,30.9l17.8,51.3h-14.3l-2.9-9.8H86.2l-2.9,9.8H69.4l17.9-51.3C87.3,30.9,102.9,30.9,102.9,30.9z M89.6,61.4h10.6
			l-5.3-17.7L89.6,61.4z"/>
		<path d="M130,42.6h-14.8V30.9h43.4v11.7h-14.8v39.6H130V42.6z"/>
		<path d="M162.7,30.9h13.8v18.6h16.7V30.9H207v51.3h-13.8V61.9h-16.7v20.3h-13.8V30.9z"/>
		<path d="M244.1,30.9l17.8,51.3h-14.3l-2.9-9.8h-17.3l-2.9,9.8h-13.9l17.8-51.3C228.4,30.9,244.1,30.9,244.1,30.9z M230.7,61.4
			h10.6l-5.2-17.7L230.7,61.4z"/>
	</g>
</g>
<g>
	<g>
		<g>
			<path class="st0" d="M879,82.2l13-51.3h7.2c8.5,0,15,2.1,19.4,6.4c4.4,4.3,6.6,10.5,6.6,18.7c0,8.4-2.3,14.9-6.9,19.4
				c-4.6,4.5-11.2,6.8-19.8,6.8C898.5,82.2,879,82.2,879,82.2z M892.8,70.6h5.8c4.2,0,7.3-1.2,9.3-3.7s2.9-6,2.9-10.5
				s-0.9-7.9-2.7-10.3c-1.8-2.4-4.7-3.6-8.8-3.6h-6.5L892.8,70.6L892.8,70.6z"/>
		</g>
		<g>
			<path class="st0" d="M970.5,47.1c0,3.3-0.6,6.1-1.9,8.6c-1.2,2.5-3.2,4.5-5.7,6l10.5,20.5h-14.6l-8.4-17.7h-7.5v17.7h-13.1V30.9
				h20.3c4,0,7.3,0.5,9.9,1.4c2.6,0.9,4.7,2.1,6.3,3.6c1.6,1.5,2.7,3.2,3.3,5.2C970.2,43.1,970.5,45.1,970.5,47.1z M942.9,53.8h6.8
				c2.8,0,4.7-0.5,5.9-1.6c1.1-1.1,1.7-2.6,1.7-4.6c0-1.9-0.6-3.4-1.8-4.5c-1.2-1.1-3.3-1.6-6.2-1.6H943L942.9,53.8
				C943,53.8,942.9,53.8,942.9,53.8z"/>
			<path class="st0" d="M978.7,30.9h13.8v51.3h-13.8V30.9z"/>
			<path class="st0" d="M1013.5,82.2l-17.3-51.3h14.8l10.4,35l10.4-35h14.5L1029,82.2H1013.5z"/>
			<path class="st0" d="M1049.9,30.9h36.7v11.4h-23.3v8.2h21.8v11.4h-21.8V71h24.8l-1.1,11.4h-37.1V30.9z"/>
		</g>
	</g>
	<g>
		<path class="st1" d="M876.5,82.2V54l-9.1,28.2h-10.1l-9.1-28.4v28.4h-12.7V30.9h16l11,34.3l11.1-34.3h16L876.5,82.2z"/>
	</g>
	<g>
		<path class="st1" d="M600.4,30.9h13.8v39.6h22.7l-1.2,11.7h-35.3V30.9z"/>
		<path class="st1" d="M672.4,30.9l17.8,51.3h-14.3l-2.9-9.8h-17.3l-2.9,9.8h-13.9l17.9-51.3C656.8,30.9,672.4,30.9,672.4,30.9z
			 M659.1,61.4h10.6l-5.3-17.7L659.1,61.4z"/>
		<path class="st1" d="M699.5,42.6h-14.8V30.9h43.4v11.7h-14.8v39.6h-13.8V42.6z"/>
		<path class="st1" d="M732.2,30.9H746v18.6h16.7V30.9h13.8v51.3h-13.8V61.9H746v20.3h-13.8V30.9z"/>
		<path class="st1" d="M813.6,30.9l17.8,51.3h-14.3l-2.9-9.8h-17.3l-2.9,9.8h-13.9l17.8-51.3C797.9,30.9,813.6,30.9,813.6,30.9z
			 M800.2,61.4h10.6l-5.2-17.7L800.2,61.4z"/>
	</g>
</g>
</svg>
